<svg width="323" height="323" viewBox="0 0 323 323" fill="none" xmlns="http://www.w3.org/2000/svg">
<path d="M178.85 56.6283C201.337 60.1431 221.481 70.7268 236.938 86.0356L241.85 77.85H260.85V122.115C265.688 134.25 268.35 147.489 268.35 161.35C268.35 175.211 265.688 188.449 260.85 200.584V245.85H241.85L236.561 237.036C221.154 252.144 201.155 262.584 178.85 266.071V278.85H145.85V266.073C123.545 262.586 103.545 252.144 88.1381 237.036L82.85 245.85H63.85V204.85H82.4017C97.8318 233.149 127.848 252.35 162.35 252.35C212.608 252.35 253.35 211.608 253.35 161.35C253.35 111.092 212.608 70.35 162.35 70.35C127.443 70.35 97.128 90.0044 81.8646 118.85H63.85V77.85H82.85L87.7611 86.0346C103.218 70.7257 123.363 60.1421 145.85 56.6273V43.85H178.85V56.6283Z" fill="url(#paint0_linear_3_31)"/>
<path fill-rule="evenodd" clip-rule="evenodd" d="M155.014 115.734H164.777V95.85H177.203V116.175C193.178 117.501 205.604 122.362 206.492 136.501C207.379 147.548 202.941 153.734 195.841 157.269C207.823 160.362 215.367 167.432 213.592 182.897C211.817 202.338 197.172 207.641 176.315 208.525V228.85H163.89V208.525H154.126V228.85H141.702V208.525H117.29V193.943H128.388C131.051 194.385 133.269 192.176 133.269 189.966V134.734C132.825 131.199 129.719 128.989 126.169 129.431H117.293V116.175H142.588V95.85H155.014V115.734ZM189.628 180.687C189.628 164.78 163.446 166.99 155.014 166.99V193.943C163.446 193.943 189.628 196.152 189.628 180.687ZM155.014 154.175C161.671 154.617 183.86 156.385 183.86 142.246C183.86 128.106 162.114 129.873 155.014 129.431V154.175Z" fill="url(#paint1_linear_3_31)"/>
<path d="M80.35 124.85C80.35 124.85 76.85 129.85 76.85 138.35V185.85C76.85 192.85 79.35 198.85 79.35 198.85H63.85V124.85H80.35Z" fill="url(#paint2_linear_3_31)"/>
<path fill-rule="evenodd" clip-rule="evenodd" d="M161.35 0.350006C250.268 0.350006 322.35 72.4322 322.35 161.35C322.35 250.268 250.268 322.35 161.35 322.35C72.4321 322.35 0.349976 250.268 0.349976 161.35C0.349976 72.4322 72.4321 0.350006 161.35 0.350006ZM161.35 17.35C81.821 17.35 17.35 81.821 17.35 161.35C17.35 240.879 81.821 305.35 161.35 305.35C240.879 305.35 305.35 240.879 305.35 161.35C305.35 81.821 240.879 17.35 161.35 17.35Z" fill="url(#paint3_linear_3_31)"/>
<path d="M178.85 56.6283C201.337 60.1431 221.481 70.7268 236.938 86.0356L241.85 77.85H260.85V122.115C265.688 134.25 268.35 147.489 268.35 161.35C268.35 175.211 265.688 188.449 260.85 200.584V245.85H241.85L236.561 237.036C221.154 252.144 201.155 262.584 178.85 266.071V278.85H145.85V266.073C123.545 262.586 103.545 252.144 88.1381 237.036L82.85 245.85H63.85V204.85H82.4017C97.8318 233.149 127.848 252.35 162.35 252.35C212.608 252.35 253.35 211.608 253.35 161.35C253.35 111.092 212.608 70.35 162.35 70.35C127.443 70.35 97.128 90.0044 81.8646 118.85H63.85V77.85H82.85L87.7611 86.0346C103.218 70.7257 123.363 60.1421 145.85 56.6273V43.85H178.85V56.6283Z" stroke="#EDD5A5" stroke-width="0.7"/>
<path fill-rule="evenodd" clip-rule="evenodd" d="M155.014 115.734H164.777V95.85H177.203V116.175C193.178 117.501 205.604 122.362 206.492 136.501C207.379 147.548 202.941 153.734 195.841 157.269C207.823 160.362 215.367 167.432 213.592 182.897C211.817 202.338 197.172 207.641 176.315 208.525V228.85H163.89V208.525H154.126V228.85H141.702V208.525H117.29V193.943H128.388C131.051 194.385 133.269 192.176 133.269 189.966V134.734C132.825 131.199 129.719 128.989 126.169 129.431H117.293V116.175H142.588V95.85H155.014V115.734ZM189.628 180.687C189.628 164.78 163.446 166.99 155.014 166.99V193.943C163.446 193.943 189.628 196.152 189.628 180.687ZM155.014 154.175C161.671 154.617 183.86 156.385 183.86 142.246C183.86 128.106 162.114 129.873 155.014 129.431V154.175Z" stroke="#EDD5A5" stroke-width="0.7"/>
<path d="M80.35 124.85C80.35 124.85 76.85 129.85 76.85 138.35V185.85C76.85 192.85 79.35 198.85 79.35 198.85H63.85V124.85H80.35Z" stroke="#EDD5A5" stroke-width="0.7"/>
<path fill-rule="evenodd" clip-rule="evenodd" d="M161.35 0.350006C250.268 0.350006 322.35 72.4322 322.35 161.35C322.35 250.268 250.268 322.35 161.35 322.35C72.4321 322.35 0.349976 250.268 0.349976 161.35C0.349976 72.4322 72.4321 0.350006 161.35 0.350006ZM161.35 17.35C81.821 17.35 17.35 81.821 17.35 161.35C17.35 240.879 81.821 305.35 161.35 305.35C240.879 305.35 305.35 240.879 305.35 161.35C305.35 81.821 240.879 17.35 161.35 17.35Z" stroke="#EDD5A5" stroke-width="0.7"/>
<defs>
<linearGradient id="paint0_linear_3_31" x1="294.35" y1="38.35" x2="43.35" y2="273.85" gradientUnits="userSpaceOnUse">
<stop stop-color="#C8A659"/>
<stop offset="1" stop-color="#916024"/>
</linearGradient>
<linearGradient id="paint1_linear_3_31" x1="294.35" y1="38.35" x2="43.35" y2="273.85" gradientUnits="userSpaceOnUse">
<stop stop-color="#C8A659"/>
<stop offset="1" stop-color="#916024"/>
</linearGradient>
<linearGradient id="paint2_linear_3_31" x1="294.35" y1="38.35" x2="43.35" y2="273.85" gradientUnits="userSpaceOnUse">
<stop stop-color="#C8A659"/>
<stop offset="1" stop-color="#916024"/>
</linearGradient>
<linearGradient id="paint3_linear_3_31" x1="294.35" y1="38.35" x2="43.35" y2="273.85" gradientUnits="userSpaceOnUse">
<stop stop-color="#C8A659"/>
<stop offset="1" stop-color="#916024"/>
</linearGradient>
</defs>
</svg>
